<?xml version="1.0" standalone="no"?><!DOCTYPE svg PUBLIC "-//W3C//DTD SVG 1.1//EN" "http://www.w3.org/Graphics/SVG/1.1/DTD/svg11.dtd"><svg t="1554387355252" class="icon" style="" viewBox="0 0 1024 1024" version="1.1" xmlns="http://www.w3.org/2000/svg" p-id="24509" xmlns:xlink="http://www.w3.org/1999/xlink" width="200" height="200"><defs><style type="text/css"></style></defs><path d="M896 256 896 128 0 128l0 704c0 35.36 28.64 64 64 64l864 0c53.024 0 96-42.976 96-96L1024 256 896 256zM832 832 64 832 64 192l768 0L832 832zM128 320 768 320 768 384 128 384zM512 448 768 448 768 512 512 512zM512 576 768 576 768 640 512 640zM512 704 704 704 704 768 512 768zM128 448 448 448 448 768 128 768z" p-id="24510" fill="#cccccc"></path></svg>